<svg width="21" height="19" viewBox="0 0 21 19" fill="none" xmlns="http://www.w3.org/2000/svg">
<path d="M5.25 5.6875H10.5V6.825H5.25V5.6875ZM5.25 3.4125H13.125V4.55H5.25V3.4125ZM5.25 1.1375H13.125V2.275H5.25V1.1375Z" fill="white"/>
<path d="M3.09159 15.925L6.78694 10.2398L11.6655 13.931C11.813 14.0447 11.9881 14.1281 12.178 14.1751C12.3678 14.222 12.5674 14.2312 12.7619 14.202C12.9564 14.1728 13.1408 14.106 13.3014 14.0065C13.462 13.907 13.5946 13.7773 13.6894 13.6272L18.2634 7.71054L17.1734 7.07695L12.5797 13.0193L12.5337 13.0778L7.6545 9.38665C7.50707 9.27356 7.33222 9.19063 7.14285 9.14396C6.95348 9.09729 6.75444 9.08809 6.56041 9.11702C6.36639 9.14596 6.18235 9.21229 6.02187 9.31114C5.86139 9.40998 5.72858 9.5388 5.63325 9.68809L2.625 14.3228V1.1375H1.3125V15.925C1.31285 16.2266 1.45124 16.5157 1.69731 16.729C1.94337 16.9423 2.27701 17.0622 2.625 17.0625H19.6875V15.925H3.09159Z" fill="white"/>
</svg>
