<svg width="24" height="21" viewBox="0 0 24 21" fill="none" xmlns="http://www.w3.org/2000/svg">
<path d="M4.5 19.5H13.5C13.8977 19.4997 14.279 19.3626 14.5602 19.1189C14.8414 18.8752 14.9996 18.5447 15 18.2V16.25H13.5V18.2H4.5V2.60005H13.5V4.55005H15V2.60005C14.9996 2.25537 14.8414 1.92491 14.5602 1.68119C14.279 1.43747 13.8977 1.30039 13.5 1.30005H4.5C4.1023 1.30039 3.721 1.43747 3.43978 1.68119C3.15856 1.92491 3.0004 2.25537 3 2.60005V18.2C3.0004 18.5447 3.15856 18.8752 3.43978 19.1189C3.721 19.3626 4.1023 19.4997 4.5 19.5Z" fill="white"/>
<path d="M15.4395 13.381L18.129 11.0501H7.5V9.75006H18.129L15.4395 7.41916L16.5 6.50006L21 10.4001L16.5 14.3001L15.4395 13.381Z" fill="white"/>
</svg>
