<svg width="14" height="25" viewBox="0 0 14 25" fill="none" xmlns="http://www.w3.org/2000/svg">
<path d="M1 6.58728C1 6.58728 1.09 4.28287 3.09625 2.43514C4.2875 1.3381 5.71812 1.02037 7 1.00082C8.17062 0.984758 9.21688 1.20612 9.8425 1.5469C10.9119 2.13208 13 3.55663 13 6.58728C13 9.77646 11.1762 11.222 9.10312 12.8148C7.03 14.4076 6.5 15.9698 6.5 17.7602" stroke="#F63333" stroke-width="1.76122" stroke-miterlimit="10" stroke-linecap="round"/>
<path d="M6.49969 24.0453C7.32812 24.0453 7.99969 23.3418 7.99969 22.474C7.99969 21.6062 7.32812 20.9027 6.49969 20.9027C5.67127 20.9027 4.99969 21.6062 4.99969 22.474C4.99969 23.3418 5.67127 24.0453 6.49969 24.0453Z" fill="#F63333"/>
</svg>
