<svg width="23" height="24" viewBox="0 0 23 24" fill="none" xmlns="http://www.w3.org/2000/svg">
<path d="M11.5 15.2986C13.2397 15.2986 14.65 13.8212 14.65 11.9989C14.65 10.1765 13.2397 8.69922 11.5 8.69922C9.7603 8.69922 8.35 10.1765 8.35 11.9989C8.35 13.8212 9.7603 15.2986 11.5 15.2986Z" stroke="white" stroke-width="1.47942" stroke-linecap="round" stroke-linejoin="round"/>
<path d="M18.5636 14.9986C18.4366 15.3002 18.3987 15.6347 18.4548 15.9591C18.511 16.2834 18.6586 16.5827 18.8786 16.8184L18.9359 16.8784C19.1134 17.0641 19.2542 17.2847 19.3503 17.5275C19.4464 17.7702 19.4958 18.0305 19.4958 18.2933C19.4958 18.5561 19.4464 18.8163 19.3503 19.0591C19.2542 19.3018 19.1134 19.5224 18.9359 19.7081C18.7586 19.894 18.5481 20.0416 18.3163 20.1422C18.0845 20.2428 17.8361 20.2946 17.5852 20.2946C17.3343 20.2946 17.0859 20.2428 16.8542 20.1422C16.6224 20.0416 16.4118 19.894 16.2345 19.7081L16.1773 19.6481C15.9523 19.4176 15.6666 19.263 15.3569 19.2042C15.0473 19.1453 14.7279 19.185 14.44 19.3182C14.1577 19.4449 13.9169 19.6554 13.7473 19.9236C13.5777 20.1919 13.4867 20.5062 13.4855 20.828V20.998C13.4855 21.5284 13.2843 22.037 12.9263 22.4121C12.5683 22.7871 12.0827 22.9978 11.5764 22.9978C11.07 22.9978 10.5845 22.7871 10.2264 22.4121C9.86841 22.037 9.66727 21.5284 9.66727 20.998V20.908C9.65988 20.577 9.55761 20.2561 9.37376 19.9868C9.18991 19.7175 8.93297 19.5124 8.63636 19.3981C8.34846 19.265 8.02909 19.2253 7.71944 19.2842C7.40979 19.343 7.12406 19.4976 6.89909 19.7281L6.84182 19.7881C6.66451 19.974 6.45396 20.1215 6.2222 20.2222C5.99044 20.3228 5.74202 20.3746 5.49114 20.3746C5.24025 20.3746 4.99183 20.3228 4.76007 20.2222C4.52831 20.1215 4.31776 19.974 4.14045 19.7881C3.96295 19.6024 3.82214 19.3818 3.72607 19.1391C3.62999 18.8963 3.58054 18.6361 3.58054 18.3732C3.58054 18.1104 3.62999 17.8502 3.72607 17.6074C3.82214 17.3647 3.96295 17.1441 4.14045 16.9584L4.19773 16.8984C4.41778 16.6627 4.5654 16.3634 4.62155 16.0391C4.67769 15.7147 4.63979 15.3802 4.51273 15.0786C4.39173 14.7828 4.19081 14.5306 3.93472 14.353C3.67862 14.1753 3.37852 14.08 3.07136 14.0787H2.90909C2.40277 14.0787 1.91718 13.868 1.55916 13.493C1.20114 13.1179 1 12.6093 1 12.0789C1 11.5485 1.20114 11.0398 1.55916 10.6648C1.91718 10.2898 2.40277 10.0791 2.90909 10.0791H2.995C3.31095 10.0713 3.61737 9.96421 3.87442 9.77163C4.13148 9.57904 4.32727 9.3099 4.43636 8.99919C4.56343 8.69761 4.60133 8.36306 4.54519 8.0387C4.48904 7.71434 4.34142 7.41503 4.12136 7.17938L4.06409 7.11938C3.88659 6.93366 3.74578 6.7131 3.6497 6.47033C3.55363 6.22756 3.50418 5.96733 3.50418 5.70453C3.50418 5.44172 3.55363 5.18149 3.6497 4.93872C3.74578 4.69595 3.88659 4.4754 4.06409 4.28967C4.24139 4.10373 4.45194 3.95623 4.6837 3.85559C4.91546 3.75495 5.16389 3.70315 5.41477 3.70315C5.66566 3.70315 5.91408 3.75495 6.14584 3.85559C6.3776 3.95623 6.58815 4.10373 6.76545 4.28967L6.82273 4.34966C7.04769 4.58018 7.33342 4.73481 7.64307 4.79362C7.95272 4.85243 8.27209 4.81273 8.56 4.67963H8.63636C8.91869 4.55288 9.15947 4.34242 9.32907 4.07416C9.49867 3.80589 9.58968 3.49154 9.59091 3.16978V2.9998C9.59091 2.46942 9.79204 1.96076 10.1501 1.58573C10.5081 1.21069 10.9937 1 11.5 1C12.0063 1 12.4919 1.21069 12.8499 1.58573C13.208 1.96076 13.4091 2.46942 13.4091 2.9998V3.08979C13.4103 3.41154 13.5013 3.7259 13.6709 3.99416C13.8405 4.26243 14.0813 4.47289 14.3636 4.59964C14.6515 4.73274 14.9709 4.77244 15.2806 4.71363C15.5902 4.65482 15.8759 4.50018 16.1009 4.26967L16.1582 4.20968C16.3355 4.02374 16.546 3.87624 16.7778 3.7756C17.0096 3.67496 17.258 3.62316 17.5089 3.62316C17.7597 3.62316 18.0082 3.67496 18.2399 3.7756C18.4717 3.87624 18.6822 4.02374 18.8595 4.20968C19.037 4.3954 19.1779 4.61596 19.2739 4.85873C19.37 5.1015 19.4195 5.36173 19.4195 5.62453C19.4195 5.88734 19.37 6.14757 19.2739 6.39034C19.1779 6.63311 19.037 6.85366 18.8595 7.03939L18.8023 7.09938C18.5822 7.33504 18.4346 7.63435 18.3784 7.95871C18.3223 8.28307 18.3602 8.61762 18.4873 8.9192V8.99919C18.6083 9.29493 18.8092 9.54716 19.0653 9.72481C19.3214 9.90247 19.6215 9.99781 19.9286 9.99909H20.0909C20.5972 9.99909 21.0828 10.2098 21.4408 10.5848C21.7989 10.9599 22 11.4685 22 11.9989C22 12.5293 21.7989 13.0379 21.4408 13.413C21.0828 13.788 20.5972 13.9987 20.0909 13.9987H20.005C19.6978 14 19.3977 14.0953 19.1416 14.273C18.8856 14.4506 18.6846 14.7028 18.5636 14.9986Z" stroke="white" stroke-width="1.47942" stroke-linecap="round" stroke-linejoin="round"/>
</svg>
