<svg width="22" height="21" viewBox="0 0 22 21" fill="none" xmlns="http://www.w3.org/2000/svg">
<path d="M8.83184 16.3129V8.55939H8.04104C7.47467 8.91068 6.92729 9.30194 6.40198 9.73099V10.7412C6.87046 10.3677 7.61253 9.84001 7.97358 9.6118H7.98857V16.3129H8.83184V16.3129ZM10.316 14.416C10.3747 15.3463 11.0581 16.4597 12.4435 16.4597C14.0151 16.4597 14.9421 14.9102 14.9421 12.2864C14.9421 9.47516 13.9664 8.40821 12.5022 8.40821C11.3454 8.40821 10.2573 9.38503 10.2573 11.0378C10.2573 12.724 11.2867 13.6107 12.3511 13.6107C13.283 13.6107 13.8877 13.0641 14.0788 12.4623H14.1126C14.1076 14.3753 13.5366 15.6079 12.4822 15.6079C11.6527 15.6079 11.223 14.9538 11.1705 14.416H10.316V14.416ZM14.0051 11.048C14.0051 12.0597 13.3068 12.7632 12.526 12.7632C11.7751 12.7632 11.0968 12.2065 11.0968 11.0189C11.0968 9.82257 11.8239 9.26002 12.556 9.26002C13.3467 9.26002 14.0051 9.83856 14.0051 11.048Z" fill="white"/>
<path d="M4.67037 0C4.84732 0 5.01703 0.0691404 5.14215 0.192211C5.26727 0.315282 5.33757 0.482202 5.33757 0.65625V1.3125H16.0127V0.65625C16.0127 0.482202 16.083 0.315282 16.2081 0.192211C16.3332 0.0691404 16.5029 0 16.6799 0C16.8568 0 17.0266 0.0691404 17.1517 0.192211C17.2768 0.315282 17.3471 0.482202 17.3471 0.65625V1.3125H18.6815C19.3893 1.3125 20.0681 1.58906 20.5686 2.08134C21.0691 2.57363 21.3503 3.24131 21.3503 3.9375V18.375C21.3503 19.0712 21.0691 19.7389 20.5686 20.2312C20.0681 20.7234 19.3893 21 18.6815 21H2.66878C1.96098 21 1.28216 20.7234 0.781669 20.2312C0.281175 19.7389 0 19.0712 0 18.375V3.9375C0 3.24131 0.281175 2.57363 0.781669 2.08134C1.28216 1.58906 1.96098 1.3125 2.66878 1.3125H4.00318V0.65625C4.00318 0.482202 4.07347 0.315282 4.19859 0.192211C4.32372 0.0691404 4.49342 0 4.67037 0V0ZM1.33439 5.25V18.375C1.33439 18.7231 1.47498 19.0569 1.72523 19.3031C1.97547 19.5492 2.31488 19.6875 2.66878 19.6875H18.6815C19.0354 19.6875 19.3748 19.5492 19.625 19.3031C19.8753 19.0569 20.0159 18.7231 20.0159 18.375V5.25H1.33439Z" fill="white"/>
</svg>
