<svg width="225" height="203" viewBox="0 0 225 203" fill="none" xmlns="http://www.w3.org/2000/svg">
<g filter="url(#filter0_b_219_639)">
<path d="M0 18.8482C0 12.2507 0 8.95195 1.28395 6.43205C2.41335 4.21548 4.21548 2.41335 6.43205 1.28395C8.95195 0 12.2507 0 18.8482 0H206.152C212.749 0 216.048 0 218.568 1.28395C220.785 2.41335 222.587 4.21548 223.716 6.43205C225 8.95195 225 12.2507 225 18.8482V184.152C225 190.749 225 194.048 223.716 196.568C222.587 198.785 220.785 200.587 218.568 201.716C216.048 203 212.749 203 206.152 203H18.8482C12.2507 203 8.95195 203 6.43205 201.716C4.21548 200.587 2.41335 198.785 1.28395 196.568C0 194.048 0 190.749 0 184.152V18.8482Z" fill="url(#paint0_linear_219_639)"/>
<path d="M18.8482 0.589005H206.152C209.46 0.589005 211.906 0.589463 213.841 0.747543C215.769 0.905062 217.137 1.21614 218.301 1.80876C220.406 2.88169 222.118 4.59371 223.191 6.69945C223.784 7.86253 224.095 9.23105 224.252 11.159C224.411 13.0938 224.411 15.5397 224.411 18.8482V184.152C224.411 187.46 224.411 189.906 224.252 191.841C224.095 193.769 223.784 195.137 223.191 196.301C222.118 198.406 220.406 200.118 218.301 201.191C217.137 201.784 215.769 202.095 213.841 202.252C211.906 202.411 209.46 202.411 206.152 202.411H18.8482C15.5397 202.411 13.0938 202.411 11.159 202.252C9.23105 202.095 7.86253 201.784 6.69945 201.191C4.59371 200.118 2.88169 198.406 1.80876 196.301C1.21614 195.137 0.905062 193.769 0.747543 191.841C0.589463 189.906 0.589005 187.46 0.589005 184.152V18.8482C0.589005 15.5397 0.589463 13.0938 0.747543 11.159C0.905062 9.23105 1.21614 7.86253 1.80876 6.69945C2.88169 4.59371 4.59371 2.88169 6.69945 1.80876C7.86253 1.21614 9.23105 0.905062 11.159 0.747543C13.0938 0.589463 15.5397 0.589005 18.8482 0.589005Z" stroke="url(#paint1_linear_219_639)" stroke-width="1.17801" style="mix-blend-mode:overlay"/>
<path d="M18.8482 0.589005H206.152C209.46 0.589005 211.906 0.589463 213.841 0.747543C215.769 0.905062 217.137 1.21614 218.301 1.80876C220.406 2.88169 222.118 4.59371 223.191 6.69945C223.784 7.86253 224.095 9.23105 224.252 11.159C224.411 13.0938 224.411 15.5397 224.411 18.8482V184.152C224.411 187.46 224.411 189.906 224.252 191.841C224.095 193.769 223.784 195.137 223.191 196.301C222.118 198.406 220.406 200.118 218.301 201.191C217.137 201.784 215.769 202.095 213.841 202.252C211.906 202.411 209.46 202.411 206.152 202.411H18.8482C15.5397 202.411 13.0938 202.411 11.159 202.252C9.23105 202.095 7.86253 201.784 6.69945 201.191C4.59371 200.118 2.88169 198.406 1.80876 196.301C1.21614 195.137 0.905062 193.769 0.747543 191.841C0.589463 189.906 0.589005 187.46 0.589005 184.152V18.8482C0.589005 15.5397 0.589463 13.0938 0.747543 11.159C0.905062 9.23105 1.21614 7.86253 1.80876 6.69945C2.88169 4.59371 4.59371 2.88169 6.69945 1.80876C7.86253 1.21614 9.23105 0.905062 11.159 0.747543C13.0938 0.589463 15.5397 0.589005 18.8482 0.589005Z" stroke="url(#paint2_linear_219_639)" stroke-opacity="0.6" stroke-width="1.17801" style="mix-blend-mode:overlay"/>
</g>
<defs>
<filter id="filter0_b_219_639" x="-23.5602" y="-23.5602" width="272.12" height="250.12" filterUnits="userSpaceOnUse" color-interpolation-filters="sRGB">
<feFlood flood-opacity="0" result="BackgroundImageFix"/>
<feGaussianBlur in="BackgroundImageFix" stdDeviation="11.7801"/>
<feComposite in2="SourceAlpha" operator="in" result="effect1_backgroundBlur_219_639"/>
<feBlend mode="normal" in="SourceGraphic" in2="effect1_backgroundBlur_219_639" result="shape"/>
</filter>
<linearGradient id="paint0_linear_219_639" x1="0" y1="-12.8481" x2="0" y2="219.381" gradientUnits="userSpaceOnUse">
<stop offset="0.0456565" stop-color="#3C0606" stop-opacity="0"/>
<stop offset="0.263623" stop-color="#AB0F0F" stop-opacity="0.44"/>
<stop offset="0.925576" stop-color="#C11717"/>
</linearGradient>
<linearGradient id="paint1_linear_219_639" x1="112.5" y1="0.225689" x2="112.5" y2="154.993" gradientUnits="userSpaceOnUse">
<stop offset="0.129501" stop-color="white" stop-opacity="0"/>
<stop offset="0.53857" stop-color="white" stop-opacity="0.86615"/>
</linearGradient>
<linearGradient id="paint2_linear_219_639" x1="112.5" y1="0" x2="112.5" y2="203" gradientUnits="userSpaceOnUse">
<stop stop-color="white"/>
<stop offset="1" stop-color="white" stop-opacity="0"/>
</linearGradient>
</defs>
</svg>
